<svg width="176" height="37" viewBox="0 0 176 37" fill="none" xmlns="http://www.w3.org/2000/svg">
<g filter="url(#filter0_b_2218_33)">
<path d="M14.8 28.48C10.6667 28.48 7.18667 27.36 4.36 25.12C1.53333 22.88 0.12 19.6667 0.12 15.48C0.12 13.0267 0.586667 10.84 1.52 8.92C2.45333 7 3.68 5.49333 5.2 4.4C8.26667 2.16 11.7067 1.04 15.52 1.04C17.7333 1.04 20.04 1.44 22.44 2.24L22.04 4.96C20.7867 4.42667 19.8133 4.02667 19.12 3.76C17.12 3.04 15.1067 2.68 13.08 2.68C10.28 3.32 8.12 4.70667 6.6 6.84C5.10667 8.97333 4.36 11.64 4.36 14.84C4.36 18.76 5.38667 21.7867 7.44 23.92C9.49333 26.0267 12.2 27.08 15.56 27.08C18.92 27.08 21.4267 26.36 23.08 24.92V27.12C20.7867 28.0267 18.0267 28.48 14.8 28.48ZM35.6734 23.76V19.64C33.7534 19.7733 32.1801 20.2 30.9534 20.92C29.7268 21.64 29.1134 22.4133 29.1134 23.24C29.1134 24.0667 29.3268 24.7867 29.7534 25.4C30.1801 25.9867 30.7268 26.4 31.3934 26.64C32.2734 26.48 33.2068 26.04 34.1934 25.32C35.1801 24.6 35.6734 24.08 35.6734 23.76ZM38.9534 22.68C38.9534 24.5733 39.6468 26.0133 41.0334 27L38.9534 28.52L35.7134 25.6C33.6068 27.52 31.6601 28.48 29.8734 28.48C28.7001 28.48 27.6868 28.1067 26.8334 27.36C26.0068 26.6133 25.5934 25.68 25.5934 24.56C25.5934 23.4133 25.9268 22.4667 26.5934 21.72C27.2868 20.9733 28.1934 20.4 29.3134 20C31.2334 19.28 33.3534 18.8267 35.6734 18.64V14.88C35.6734 12.6667 34.3934 11.56 31.8334 11.56C30.3668 11.56 28.6334 11.88 26.6334 12.52L26.2734 11.52C26.8068 11.0933 27.7268 10.64 29.0334 10.16C30.3668 9.68 31.6334 9.44 32.8334 9.44C34.0334 9.44 35.0334 9.6 35.8334 9.92C36.6601 10.24 37.2601 10.6 37.6334 11C38.0334 11.4 38.3401 11.9467 38.5534 12.64C38.7668 13.3333 38.8868 13.88 38.9134 14.28C38.9401 14.68 38.9534 15.2133 38.9534 15.88V22.68ZM57.3269 9.92H58.8469L52.0069 28.6C51.1269 31.0533 49.8069 33.0267 48.0469 34.52C46.2869 36.0133 44.3535 36.7733 42.2469 36.8L42.6469 34.8C46.2469 34.6667 49.0469 32.3333 51.0469 27.8L42.9269 9.92H46.4869L52.6069 23.48L57.3269 9.92ZM70.4231 9.44C72.7698 9.44 74.7031 10.24 76.2231 11.84C77.7698 13.44 78.5431 15.64 78.5431 18.44C78.5431 20.2267 78.2365 21.8 77.6231 23.16C77.0098 24.52 76.2098 25.5733 75.2231 26.32C73.3298 27.76 71.2098 28.48 68.8631 28.48C66.5431 28.48 64.6098 27.68 63.0631 26.08C61.5431 24.48 60.7831 22.28 60.7831 19.48C60.7831 17.6933 61.0765 16.12 61.6631 14.76C62.2765 13.4 63.0765 12.3467 64.0631 11.6C65.9565 10.16 68.0765 9.44 70.4231 9.44ZM69.6231 27.12C70.7965 27.12 71.7965 26.6667 72.6231 25.76C74.1165 24.16 74.8631 22.04 74.8631 19.4C74.8631 16.7333 74.4098 14.6667 73.5031 13.2C72.5965 11.7067 71.1165 10.96 69.0631 10.96C67.5431 11.5467 66.3831 12.5867 65.5831 14.08C64.8098 15.5467 64.4231 17.3333 64.4231 19.44C64.4231 21.52 64.8498 23.32 65.7031 24.84C66.5565 26.36 67.8631 27.12 69.6231 27.12ZM83.3031 28V1.52H90.8631C93.9298 1.52 96.3698 2.04 98.1831 3.08C99.9965 4.12 100.903 5.68 100.903 7.76C100.903 9.22667 100.383 10.5067 99.3431 11.6C98.3298 12.6667 96.9031 13.48 95.0631 14.04C97.4898 14.4933 99.3165 15.32 100.543 16.52C101.796 17.6933 102.423 18.9867 102.423 20.4C102.423 21.8133 102.063 23.0267 101.343 24.04C100.623 25.0267 99.7031 25.7867 98.5831 26.32C96.3165 27.44 93.9965 28 91.6231 28H83.3031ZM87.1831 13.64H90.0631C92.4898 13.64 94.2231 13.1067 95.2631 12.04C96.3298 10.9467 96.8631 9.58667 96.8631 7.96C96.8631 6.86666 96.4898 5.88 95.7431 5C95.0231 4.09333 93.9031 3.41333 92.3831 2.96C90.5698 2.96 88.8365 3.22667 87.1831 3.76V13.64ZM87.1831 14.8V26.2C88.0365 26.4667 89.3565 26.6 91.1431 26.6C92.9298 26.6 94.5165 26.1067 95.9031 25.12C97.2898 24.1333 97.9831 22.76 97.9831 21C97.9831 19.24 97.2231 17.7733 95.7031 16.6C94.1831 15.4 92.3565 14.8 90.2231 14.8H87.1831ZM109.645 18.16C109.645 21.04 110.285 23.12 111.565 24.4C112.872 25.6533 114.445 26.28 116.285 26.28C118.152 26.28 119.872 25.92 121.445 25.2V26.6C119.259 27.8533 117.165 28.48 115.165 28.48C112.579 28.48 110.485 27.6933 108.885 26.12C107.285 24.5467 106.485 22.2667 106.485 19.28C106.485 16.2933 107.365 13.9067 109.125 12.12C110.912 10.3333 113.059 9.44 115.565 9.44C117.512 9.44 119.139 10.2133 120.445 11.76C121.752 13.28 122.405 15.4133 122.405 18.16H109.645ZM113.525 11.32C112.592 11.7733 111.792 12.5067 111.125 13.52C110.459 14.5067 110.019 15.6533 109.805 16.96H119.165C119.085 15.84 118.819 14.88 118.365 14.08C117.939 13.28 117.419 12.6933 116.805 12.32C115.712 11.6533 114.619 11.32 113.525 11.32ZM135.595 23.76V19.64C133.675 19.7733 132.102 20.2 130.875 20.92C129.649 21.64 129.035 22.4133 129.035 23.24C129.035 24.0667 129.249 24.7867 129.675 25.4C130.102 25.9867 130.649 26.4 131.315 26.64C132.195 26.48 133.129 26.04 134.115 25.32C135.102 24.6 135.595 24.08 135.595 23.76ZM138.875 22.68C138.875 24.5733 139.569 26.0133 140.955 27L138.875 28.52L135.635 25.6C133.529 27.52 131.582 28.48 129.795 28.48C128.622 28.48 127.609 28.1067 126.755 27.36C125.929 26.6133 125.515 25.68 125.515 24.56C125.515 23.4133 125.849 22.4667 126.515 21.72C127.209 20.9733 128.115 20.4 129.235 20C131.155 19.28 133.275 18.8267 135.595 18.64V14.88C135.595 12.6667 134.315 11.56 131.755 11.56C130.289 11.56 128.555 11.88 126.555 12.52L126.195 11.52C126.729 11.0933 127.649 10.64 128.955 10.16C130.289 9.68 131.555 9.44 132.755 9.44C133.955 9.44 134.955 9.6 135.755 9.92C136.582 10.24 137.182 10.6 137.555 11C137.955 11.4 138.262 11.9467 138.475 12.64C138.689 13.3333 138.809 13.88 138.835 14.28C138.862 14.68 138.875 15.2133 138.875 15.88V22.68ZM151.089 28.48C148.769 28.48 146.835 27.6933 145.289 26.12C143.769 24.52 143.009 22.2667 143.009 19.36C143.009 16.4533 143.822 14.08 145.449 12.24C147.102 10.3733 149.195 9.44 151.729 9.44C153.142 9.44 154.729 9.78667 156.489 10.48L156.089 13.12C153.742 11.8933 151.729 11.28 150.049 11.28C148.662 11.9733 147.662 13.0933 147.049 14.64C146.435 16.1867 146.129 17.7067 146.129 19.2C146.129 21.2267 146.715 22.92 147.889 24.28C149.089 25.6133 150.515 26.28 152.169 26.28C153.822 26.28 155.342 25.92 156.729 25.2V26.6C154.809 27.8533 152.929 28.48 151.089 28.48ZM170.779 9.52C172.005 9.52 173.099 9.97333 174.059 10.88C175.019 11.7867 175.499 13.3467 175.499 15.56V28H172.139V15.96C172.139 14.6533 171.899 13.68 171.419 13.04C170.965 12.3733 170.072 12.04 168.739 12.04C167.432 12.04 166.059 12.7467 164.619 14.16V28H161.259V0.679999H164.499V12.48C166.605 10.5067 168.699 9.52 170.779 9.52Z" fill="white"/>
</g>
<defs>
<filter id="filter0_b_2218_33" x="-3.88" y="-3.31995" width="183.379" height="44.12" filterUnits="userSpaceOnUse" color-interpolation-filters="sRGB">
<feFlood flood-opacity="0" result="BackgroundImageFix"/>
<feGaussianBlur in="BackgroundImageFix" stdDeviation="2"/>
<feComposite in2="SourceAlpha" operator="in" result="effect1_backgroundBlur_2218_33"/>
<feBlend mode="normal" in="SourceGraphic" in2="effect1_backgroundBlur_2218_33" result="shape"/>
</filter>
</defs>
</svg>
