<svg width="1920" height="840" viewBox="0 0 1920 840" fill="none" xmlns="http://www.w3.org/2000/svg">
<g filter="url(#filter0_ddddd_1_40)">
<path d="M339.847 263.424L339.175 251.72H345.335L344.719 263.424H339.847ZM330.831 263.424L330.215 251.72H336.375L335.703 263.424H330.831ZM362.676 294L348.34 254.8H356.012L367.1 286.664L378.244 254.8H385.804L371.468 294H362.676ZM394.16 261.912C392.854 261.912 391.771 261.52 390.912 260.736C390.091 259.952 389.68 258.963 389.68 257.768C389.68 256.573 390.091 255.603 390.912 254.856C391.771 254.072 392.854 253.68 394.16 253.68C395.467 253.68 396.531 254.072 397.352 254.856C398.211 255.603 398.64 256.573 398.64 257.768C398.64 258.963 398.211 259.952 397.352 260.736C396.531 261.52 395.467 261.912 394.16 261.912ZM390.576 294V266.224H397.744V294H390.576ZM412.73 294L402.538 266.224H410.042L417.098 287.224L424.154 266.224H431.658L421.41 294H412.73ZM448.308 294.672C445.508 294.672 443.025 294.075 440.86 292.88C438.695 291.685 436.996 290.005 435.764 287.84C434.532 285.675 433.916 283.173 433.916 280.336C433.916 277.461 434.513 274.904 435.708 272.664C436.94 270.424 438.62 268.688 440.748 267.456C442.913 266.187 445.452 265.552 448.364 265.552C451.089 265.552 453.497 266.149 455.588 267.344C457.679 268.539 459.303 270.181 460.46 272.272C461.655 274.325 462.252 276.621 462.252 279.16C462.252 279.571 462.233 280 462.196 280.448C462.196 280.896 462.177 281.363 462.14 281.848H441.028C441.177 284.013 441.924 285.712 443.268 286.944C444.649 288.176 446.311 288.792 448.252 288.792C449.708 288.792 450.921 288.475 451.892 287.84C452.9 287.168 453.647 286.309 454.132 285.264H461.412C460.889 287.019 460.012 288.624 458.78 290.08C457.585 291.499 456.092 292.619 454.3 293.44C452.545 294.261 450.548 294.672 448.308 294.672ZM448.364 271.376C446.609 271.376 445.06 271.88 443.716 272.888C442.372 273.859 441.513 275.352 441.14 277.368H454.972C454.86 275.539 454.188 274.083 452.956 273C451.724 271.917 450.193 271.376 448.364 271.376ZM492.04 294.672C488.568 294.672 485.88 293.589 483.976 291.424C482.11 289.259 481.176 286.085 481.176 281.904V266.224H488.288V281.232C488.288 283.621 488.774 285.451 489.744 286.72C490.715 287.989 492.246 288.624 494.336 288.624C496.315 288.624 497.939 287.915 499.208 286.496C500.515 285.077 501.168 283.099 501.168 280.56V266.224H508.336V294H502.008L501.448 289.296C500.59 290.939 499.339 292.245 497.696 293.216C496.091 294.187 494.206 294.672 492.04 294.672ZM515.695 294V266.224H522.023L522.583 270.928C523.441 269.285 524.673 267.979 526.279 267.008C527.921 266.037 529.844 265.552 532.047 265.552C535.481 265.552 538.151 266.635 540.055 268.8C541.959 270.965 542.911 274.139 542.911 278.32V294H535.743V278.992C535.743 276.603 535.257 274.773 534.287 273.504C533.316 272.235 531.804 271.6 529.751 271.6C527.735 271.6 526.073 272.309 524.767 273.728C523.497 275.147 522.863 277.125 522.863 279.664V294H515.695ZM559.341 294.672C556.952 294.672 554.992 294.299 553.461 293.552C551.93 292.768 550.792 291.741 550.045 290.472C549.298 289.203 548.925 287.803 548.925 286.272C548.925 283.696 549.933 281.605 551.949 280C553.965 278.395 556.989 277.592 561.021 277.592H568.077V276.92C568.077 275.016 567.536 273.616 566.453 272.72C565.37 271.824 564.026 271.376 562.421 271.376C560.965 271.376 559.696 271.731 558.613 272.44C557.53 273.112 556.858 274.12 556.597 275.464H549.597C549.784 273.448 550.456 271.693 551.613 270.2C552.808 268.707 554.338 267.568 556.205 266.784C558.072 265.963 560.162 265.552 562.477 265.552C566.434 265.552 569.552 266.541 571.829 268.52C574.106 270.499 575.245 273.299 575.245 276.92V294H569.141L568.469 289.52C567.648 291.013 566.49 292.245 564.997 293.216C563.541 294.187 561.656 294.672 559.341 294.672ZM560.965 289.072C563.018 289.072 564.605 288.4 565.725 287.056C566.882 285.712 567.61 284.051 567.909 282.072H561.805C559.901 282.072 558.538 282.427 557.717 283.136C556.896 283.808 556.485 284.648 556.485 285.656C556.485 286.739 556.896 287.579 557.717 288.176C558.538 288.773 559.621 289.072 560.965 289.072ZM608.925 294.672C606.125 294.672 603.642 294.075 601.477 292.88C599.312 291.685 597.613 290.005 596.381 287.84C595.149 285.675 594.533 283.173 594.533 280.336C594.533 277.461 595.13 274.904 596.325 272.664C597.557 270.424 599.237 268.688 601.365 267.456C603.53 266.187 606.069 265.552 608.981 265.552C611.706 265.552 614.114 266.149 616.205 267.344C618.296 268.539 619.92 270.181 621.077 272.272C622.272 274.325 622.869 276.621 622.869 279.16C622.869 279.571 622.85 280 622.813 280.448C622.813 280.896 622.794 281.363 622.757 281.848H601.645C601.794 284.013 602.541 285.712 603.885 286.944C605.266 288.176 606.928 288.792 608.869 288.792C610.325 288.792 611.538 288.475 612.509 287.84C613.517 287.168 614.264 286.309 614.749 285.264H622.029C621.506 287.019 620.629 288.624 619.397 290.08C618.202 291.499 616.709 292.619 614.917 293.44C613.162 294.261 611.165 294.672 608.925 294.672ZM608.981 271.376C607.226 271.376 605.677 271.88 604.333 272.888C602.989 273.859 602.13 275.352 601.757 277.368H615.589C615.477 275.539 614.805 274.083 613.573 273C612.341 271.917 610.81 271.376 608.981 271.376ZM624.352 294L634.432 280.112L624.352 266.224H632.024L639.08 276.08L646.08 266.224H653.808L643.672 280.112L653.808 294H646.08L639.08 284.144L632.024 294H624.352ZM658.374 306.32V266.224H664.758L665.542 270.2C666.438 268.968 667.614 267.885 669.07 266.952C670.564 266.019 672.486 265.552 674.838 265.552C677.452 265.552 679.785 266.187 681.838 267.456C683.892 268.725 685.516 270.461 686.71 272.664C687.905 274.867 688.502 277.368 688.502 280.168C688.502 282.968 687.905 285.469 686.71 287.672C685.516 289.837 683.892 291.555 681.838 292.824C679.785 294.056 677.452 294.672 674.838 294.672C672.748 294.672 670.918 294.28 669.35 293.496C667.782 292.712 666.513 291.611 665.542 290.192V306.32H658.374ZM673.326 288.4C675.604 288.4 677.489 287.635 678.982 286.104C680.476 284.573 681.222 282.595 681.222 280.168C681.222 277.741 680.476 275.744 678.982 274.176C677.489 272.608 675.604 271.824 673.326 271.824C671.012 271.824 669.108 272.608 667.614 274.176C666.158 275.707 665.43 277.685 665.43 280.112C665.43 282.539 666.158 284.536 667.614 286.104C669.108 287.635 671.012 288.4 673.326 288.4ZM708.402 294.672C705.602 294.672 703.119 294.075 700.954 292.88C698.788 291.685 697.09 290.005 695.858 287.84C694.626 285.675 694.01 283.173 694.01 280.336C694.01 277.461 694.607 274.904 695.802 272.664C697.034 270.424 698.714 268.688 700.842 267.456C703.007 266.187 705.546 265.552 708.458 265.552C711.183 265.552 713.591 266.149 715.682 267.344C717.772 268.539 719.396 270.181 720.554 272.272C721.748 274.325 722.346 276.621 722.346 279.16C722.346 279.571 722.327 280 722.29 280.448C722.29 280.896 722.271 281.363 722.234 281.848H701.122C701.271 284.013 702.018 285.712 703.362 286.944C704.743 288.176 706.404 288.792 708.346 288.792C709.802 288.792 711.015 288.475 711.986 287.84C712.994 287.168 713.74 286.309 714.226 285.264H721.506C720.983 287.019 720.106 288.624 718.874 290.08C717.679 291.499 716.186 292.619 714.394 293.44C712.639 294.261 710.642 294.672 708.402 294.672ZM708.458 271.376C706.703 271.376 705.154 271.88 703.81 272.888C702.466 273.859 701.607 275.352 701.234 277.368H715.066C714.954 275.539 714.282 274.083 713.05 273C711.818 271.917 710.287 271.376 708.458 271.376ZM728.374 294V266.224H734.758L735.43 271.432C736.438 269.64 737.801 268.221 739.518 267.176C741.273 266.093 743.326 265.552 745.678 265.552V273.112H743.662C742.094 273.112 740.694 273.355 739.462 273.84C738.23 274.325 737.26 275.165 736.55 276.36C735.878 277.555 735.542 279.216 735.542 281.344V294H728.374ZM754.442 261.912C753.135 261.912 752.052 261.52 751.194 260.736C750.372 259.952 749.962 258.963 749.962 257.768C749.962 256.573 750.372 255.603 751.194 254.856C752.052 254.072 753.135 253.68 754.442 253.68C755.748 253.68 756.812 254.072 757.634 254.856C758.492 255.603 758.922 256.573 758.922 257.768C758.922 258.963 758.492 259.952 757.634 260.736C756.812 261.52 755.748 261.912 754.442 261.912ZM750.858 294V266.224H758.026V294H750.858ZM779.003 294.672C776.203 294.672 773.721 294.075 771.555 292.88C769.39 291.685 767.691 290.005 766.459 287.84C765.227 285.675 764.611 283.173 764.611 280.336C764.611 277.461 765.209 274.904 766.403 272.664C767.635 270.424 769.315 268.688 771.443 267.456C773.609 266.187 776.147 265.552 779.059 265.552C781.785 265.552 784.193 266.149 786.283 267.344C788.374 268.539 789.998 270.181 791.155 272.272C792.35 274.325 792.947 276.621 792.947 279.16C792.947 279.571 792.929 280 792.891 280.448C792.891 280.896 792.873 281.363 792.835 281.848H771.723C771.873 284.013 772.619 285.712 773.963 286.944C775.345 288.176 777.006 288.792 778.947 288.792C780.403 288.792 781.617 288.475 782.587 287.84C783.595 287.168 784.342 286.309 784.827 285.264H792.107C791.585 287.019 790.707 288.624 789.475 290.08C788.281 291.499 786.787 292.619 784.995 293.44C783.241 294.261 781.243 294.672 779.003 294.672ZM779.059 271.376C777.305 271.376 775.755 271.88 774.411 272.888C773.067 273.859 772.209 275.352 771.835 277.368H785.667C785.555 275.539 784.883 274.083 783.651 273C782.419 271.917 780.889 271.376 779.059 271.376ZM798.976 294V266.224H805.304L805.864 270.928C806.723 269.285 807.955 267.979 809.56 267.008C811.203 266.037 813.125 265.552 815.328 265.552C818.763 265.552 821.432 266.635 823.336 268.8C825.24 270.965 826.192 274.139 826.192 278.32V294H819.024V278.992C819.024 276.603 818.539 274.773 817.568 273.504C816.597 272.235 815.085 271.6 813.032 271.6C811.016 271.6 809.355 272.309 808.048 273.728C806.779 275.147 806.144 277.125 806.144 279.664V294H798.976ZM846.654 294.672C843.817 294.672 841.316 294.056 839.15 292.824C836.985 291.592 835.268 289.875 833.998 287.672C832.766 285.469 832.15 282.949 832.15 280.112C832.15 277.275 832.766 274.755 833.998 272.552C835.268 270.349 836.985 268.632 839.15 267.4C841.316 266.168 843.817 265.552 846.654 265.552C850.201 265.552 853.188 266.485 855.614 268.352C858.041 270.181 859.59 272.72 860.262 275.968H852.702C852.329 274.624 851.582 273.579 850.462 272.832C849.38 272.048 848.092 271.656 846.598 271.656C844.62 271.656 842.94 272.403 841.558 273.896C840.177 275.389 839.486 277.461 839.486 280.112C839.486 282.763 840.177 284.835 841.558 286.328C842.94 287.821 844.62 288.568 846.598 288.568C848.092 288.568 849.38 288.195 850.462 287.448C851.582 286.701 852.329 285.637 852.702 284.256H860.262C859.59 287.392 858.041 289.912 855.614 291.816C853.188 293.72 850.201 294.672 846.654 294.672ZM870.488 261.912C869.182 261.912 868.099 261.52 867.24 260.736C866.419 259.952 866.008 258.963 866.008 257.768C866.008 256.573 866.419 255.603 867.24 254.856C868.099 254.072 869.182 253.68 870.488 253.68C871.795 253.68 872.859 254.072 873.68 254.856C874.539 255.603 874.968 256.573 874.968 257.768C874.968 258.963 874.539 259.952 873.68 260.736C872.859 261.52 871.795 261.912 870.488 261.912ZM866.904 294V266.224H874.072V294H866.904ZM891.13 294.672C888.741 294.672 886.781 294.299 885.25 293.552C883.719 292.768 882.581 291.741 881.834 290.472C881.087 289.203 880.714 287.803 880.714 286.272C880.714 283.696 881.722 281.605 883.738 280C885.754 278.395 888.778 277.592 892.81 277.592H899.866V276.92C899.866 275.016 899.325 273.616 898.242 272.72C897.159 271.824 895.815 271.376 894.21 271.376C892.754 271.376 891.485 271.731 890.402 272.44C889.319 273.112 888.647 274.12 888.386 275.464H881.386C881.573 273.448 882.245 271.693 883.402 270.2C884.597 268.707 886.127 267.568 887.994 266.784C889.861 265.963 891.951 265.552 894.266 265.552C898.223 265.552 901.341 266.541 903.618 268.52C905.895 270.499 907.034 273.299 907.034 276.92V294H900.93L900.258 289.52C899.437 291.013 898.279 292.245 896.786 293.216C895.33 294.187 893.445 294.672 891.13 294.672ZM892.754 289.072C894.807 289.072 896.394 288.4 897.514 287.056C898.671 285.712 899.399 284.051 899.698 282.072H893.594C891.69 282.072 890.327 282.427 889.506 283.136C888.685 283.808 888.274 284.648 888.274 285.656C888.274 286.739 888.685 287.579 889.506 288.176C890.327 288.773 891.41 289.072 892.754 289.072ZM361.556 364.672C358.084 364.672 355.396 363.589 353.492 361.424C351.625 359.259 350.692 356.085 350.692 351.904V336.224H357.804V351.232C357.804 353.621 358.289 355.451 359.26 356.72C360.231 357.989 361.761 358.624 363.852 358.624C365.831 358.624 367.455 357.915 368.724 356.496C370.031 355.077 370.684 353.099 370.684 350.56V336.224H377.852V364H371.524L370.964 359.296C370.105 360.939 368.855 362.245 367.212 363.216C365.607 364.187 363.721 364.672 361.556 364.672ZM361.388 333.984V328.944L374.044 322.112V327.936L361.388 333.984ZM385.21 364V336.224H391.538L392.098 340.928C392.957 339.285 394.189 337.979 395.794 337.008C397.437 336.037 399.36 335.552 401.562 335.552C404.997 335.552 407.666 336.635 409.57 338.8C411.474 340.965 412.426 344.139 412.426 348.32V364H405.258V348.992C405.258 346.603 404.773 344.773 403.802 343.504C402.832 342.235 401.32 341.6 399.266 341.6C397.25 341.6 395.589 342.309 394.282 343.728C393.013 345.147 392.378 347.125 392.378 349.664V364H385.21ZM423.145 331.912C421.838 331.912 420.755 331.52 419.897 330.736C419.075 329.952 418.665 328.963 418.665 327.768C418.665 326.573 419.075 325.603 419.897 324.856C420.755 324.072 421.838 323.68 423.145 323.68C424.451 323.68 425.515 324.072 426.337 324.856C427.195 325.603 427.625 326.573 427.625 327.768C427.625 328.963 427.195 329.952 426.337 330.736C425.515 331.52 424.451 331.912 423.145 331.912ZM419.561 364V336.224H426.729V364H419.561ZM447.818 364.672C444.981 364.672 442.48 364.056 440.314 362.824C438.149 361.592 436.432 359.875 435.162 357.672C433.93 355.469 433.314 352.949 433.314 350.112C433.314 347.275 433.93 344.755 435.162 342.552C436.432 340.349 438.149 338.632 440.314 337.4C442.48 336.168 444.981 335.552 447.818 335.552C451.365 335.552 454.352 336.485 456.778 338.352C459.205 340.181 460.754 342.72 461.426 345.968H453.866C453.493 344.624 452.746 343.579 451.626 342.832C450.544 342.048 449.256 341.656 447.762 341.656C445.784 341.656 444.104 342.403 442.722 343.896C441.341 345.389 440.65 347.461 440.65 350.112C440.65 352.763 441.341 354.835 442.722 356.328C444.104 357.821 445.784 358.568 447.762 358.568C449.256 358.568 450.544 358.195 451.626 357.448C452.746 356.701 453.493 355.637 453.866 354.256H461.426C460.754 357.392 459.205 359.912 456.778 361.816C454.352 363.72 451.365 364.672 447.818 364.672ZM477.364 364.672C474.975 364.672 473.015 364.299 471.484 363.552C469.954 362.768 468.815 361.741 468.068 360.472C467.322 359.203 466.948 357.803 466.948 356.272C466.948 353.696 467.956 351.605 469.972 350C471.988 348.395 475.012 347.592 479.044 347.592H486.1V346.92C486.1 345.016 485.559 343.616 484.476 342.72C483.394 341.824 482.05 341.376 480.444 341.376C478.988 341.376 477.719 341.731 476.636 342.44C475.554 343.112 474.882 344.12 474.62 345.464H467.62C467.807 343.448 468.479 341.693 469.636 340.2C470.831 338.707 472.362 337.568 474.228 336.784C476.095 335.963 478.186 335.552 480.5 335.552C484.458 335.552 487.575 336.541 489.852 338.52C492.13 340.499 493.268 343.299 493.268 346.92V364H487.164L486.492 359.52C485.671 361.013 484.514 362.245 483.02 363.216C481.564 364.187 479.679 364.672 477.364 364.672ZM478.988 359.072C481.042 359.072 482.628 358.4 483.748 357.056C484.906 355.712 485.634 354.051 485.932 352.072H479.828C477.924 352.072 476.562 352.427 475.74 353.136C474.919 353.808 474.508 354.648 474.508 355.656C474.508 356.739 474.919 357.579 475.74 358.176C476.562 358.773 477.644 359.072 478.988 359.072ZM526.949 364.672C524.149 364.672 521.666 364.075 519.501 362.88C517.335 361.685 515.637 360.005 514.405 357.84C513.173 355.675 512.557 353.173 512.557 350.336C512.557 347.461 513.154 344.904 514.349 342.664C515.581 340.424 517.261 338.688 519.389 337.456C521.554 336.187 524.093 335.552 527.005 335.552C529.73 335.552 532.138 336.149 534.229 337.344C536.319 338.539 537.943 340.181 539.101 342.272C540.295 344.325 540.893 346.621 540.893 349.16C540.893 349.571 540.874 350 540.837 350.448C540.837 350.896 540.818 351.363 540.781 351.848H519.669C519.818 354.013 520.565 355.712 521.909 356.944C523.29 358.176 524.951 358.792 526.893 358.792C528.349 358.792 529.562 358.475 530.533 357.84C531.541 357.168 532.287 356.309 532.773 355.264H540.053C539.53 357.019 538.653 358.624 537.421 360.08C536.226 361.499 534.733 362.619 532.941 363.44C531.186 364.261 529.189 364.672 526.949 364.672ZM527.005 341.376C525.25 341.376 523.701 341.88 522.357 342.888C521.013 343.859 520.154 345.352 519.781 347.368H533.613C533.501 345.539 532.829 344.083 531.597 343C530.365 341.917 528.834 341.376 527.005 341.376ZM546.921 364V336.224H553.249L553.809 340.928C554.668 339.285 555.9 337.979 557.505 337.008C559.148 336.037 561.071 335.552 563.273 335.552C566.708 335.552 569.377 336.635 571.281 338.8C573.185 340.965 574.137 344.139 574.137 348.32V364H566.969V348.992C566.969 346.603 566.484 344.773 565.513 343.504C564.543 342.235 563.031 341.6 560.977 341.6C558.961 341.6 557.3 342.309 555.993 343.728C554.724 345.147 554.089 347.125 554.089 349.664V364H546.921ZM594.335 364V336.224H600.663L601.223 340.928C602.082 339.285 603.314 337.979 604.919 337.008C606.562 336.037 608.485 335.552 610.687 335.552C614.122 335.552 616.791 336.635 618.695 338.8C620.599 340.965 621.551 344.139 621.551 348.32V364H614.383V348.992C614.383 346.603 613.898 344.773 612.927 343.504C611.957 342.235 610.445 341.6 608.391 341.6C606.375 341.6 604.714 342.309 603.407 343.728C602.138 345.147 601.503 347.125 601.503 349.664V364H594.335ZM638.822 364.672C635.35 364.672 632.662 363.589 630.758 361.424C628.891 359.259 627.958 356.085 627.958 351.904V336.224H635.07V351.232C635.07 353.621 635.555 355.451 636.526 356.72C637.496 357.989 639.027 358.624 641.118 358.624C643.096 358.624 644.72 357.915 645.99 356.496C647.296 355.077 647.95 353.099 647.95 350.56V336.224H655.118V364H648.79L648.23 359.296C647.371 360.939 646.12 362.245 644.478 363.216C642.872 364.187 640.987 364.672 638.822 364.672ZM675.972 364.672C673.172 364.672 670.689 364.075 668.524 362.88C666.359 361.685 664.66 360.005 663.428 357.84C662.196 355.675 661.58 353.173 661.58 350.336C661.58 347.461 662.177 344.904 663.372 342.664C664.604 340.424 666.284 338.688 668.412 337.456C670.577 336.187 673.116 335.552 676.028 335.552C678.753 335.552 681.161 336.149 683.252 337.344C685.343 338.539 686.967 340.181 688.124 342.272C689.319 344.325 689.916 346.621 689.916 349.16C689.916 349.571 689.897 350 689.86 350.448C689.86 350.896 689.841 351.363 689.804 351.848H668.692C668.841 354.013 669.588 355.712 670.932 356.944C672.313 358.176 673.975 358.792 675.916 358.792C677.372 358.792 678.585 358.475 679.556 357.84C680.564 357.168 681.311 356.309 681.796 355.264H689.076C688.553 357.019 687.676 358.624 686.444 360.08C685.249 361.499 683.756 362.619 681.964 363.44C680.209 364.261 678.212 364.672 675.972 364.672ZM676.028 341.376C674.273 341.376 672.724 341.88 671.38 342.888C670.036 343.859 669.177 345.352 668.804 347.368H682.636C682.524 345.539 681.852 344.083 680.62 343C679.388 341.917 677.857 341.376 676.028 341.376ZM707.425 364.672C704.961 364.672 702.795 364.28 700.929 363.496C699.062 362.675 697.569 361.555 696.449 360.136C695.329 358.717 694.657 357.075 694.433 355.208H701.657C701.881 356.291 702.478 357.224 703.449 358.008C704.457 358.755 705.745 359.128 707.313 359.128C708.881 359.128 710.019 358.811 710.729 358.176C711.475 357.541 711.849 356.813 711.849 355.992C711.849 354.797 711.326 353.995 710.281 353.584C709.235 353.136 707.779 352.707 705.913 352.296C704.718 352.035 703.505 351.717 702.273 351.344C701.041 350.971 699.902 350.504 698.857 349.944C697.849 349.347 697.027 348.6 696.393 347.704C695.758 346.771 695.441 345.632 695.441 344.288C695.441 341.824 696.411 339.752 698.353 338.072C700.331 336.392 703.094 335.552 706.641 335.552C709.926 335.552 712.539 336.317 714.481 337.848C716.459 339.379 717.635 341.488 718.009 344.176H711.233C710.822 342.123 709.273 341.096 706.585 341.096C705.241 341.096 704.195 341.357 703.449 341.88C702.739 342.403 702.385 343.056 702.385 343.84C702.385 344.661 702.926 345.315 704.009 345.8C705.091 346.285 706.529 346.733 708.321 347.144C710.262 347.592 712.035 348.096 713.641 348.656C715.283 349.179 716.59 349.981 717.561 351.064C718.531 352.109 719.017 353.621 719.017 355.6C719.054 357.317 718.606 358.867 717.673 360.248C716.739 361.629 715.395 362.712 713.641 363.496C711.886 364.28 709.814 364.672 707.425 364.672ZM736.868 364C733.956 364 731.622 363.291 729.868 361.872C728.113 360.453 727.236 357.933 727.236 354.312V342.216H722.476V336.224H727.236L728.076 328.776H734.404V336.224H741.908V342.216H734.404V354.368C734.404 355.712 734.684 356.645 735.244 357.168C735.841 357.653 736.849 357.896 738.268 357.896H741.74V364H736.868ZM748.062 364V336.224H754.446L755.118 341.432C756.126 339.64 757.489 338.221 759.206 337.176C760.961 336.093 763.014 335.552 765.366 335.552V343.112H763.35C761.782 343.112 760.382 343.355 759.15 343.84C757.918 344.325 756.947 345.165 756.238 346.36C755.566 347.555 755.23 349.216 755.23 351.344V364H748.062ZM783.101 364.672C780.413 364.672 777.986 364.056 775.821 362.824C773.693 361.592 771.994 359.893 770.725 357.728C769.493 355.525 768.877 352.987 768.877 350.112C768.877 347.237 769.511 344.717 770.781 342.552C772.05 340.349 773.749 338.632 775.877 337.4C778.042 336.168 780.469 335.552 783.157 335.552C785.807 335.552 788.197 336.168 790.325 337.4C792.49 338.632 794.189 340.349 795.421 342.552C796.69 344.717 797.325 347.237 797.325 350.112C797.325 352.987 796.69 355.525 795.421 357.728C794.189 359.893 792.49 361.592 790.325 362.824C788.159 364.056 785.751 364.672 783.101 364.672ZM783.101 358.456C784.967 358.456 786.591 357.765 787.973 356.384C789.354 354.965 790.045 352.875 790.045 350.112C790.045 347.349 789.354 345.277 787.973 343.896C786.591 342.477 784.986 341.768 783.157 341.768C781.253 341.768 779.61 342.477 778.229 343.896C776.885 345.277 776.213 347.349 776.213 350.112C776.213 352.875 776.885 354.965 778.229 356.384C779.61 357.765 781.234 358.456 783.101 358.456ZM815.214 364.672C812.75 364.672 810.584 364.28 808.718 363.496C806.851 362.675 805.358 361.555 804.238 360.136C803.118 358.717 802.446 357.075 802.222 355.208H809.446C809.67 356.291 810.267 357.224 811.238 358.008C812.246 358.755 813.534 359.128 815.102 359.128C816.67 359.128 817.808 358.811 818.518 358.176C819.264 357.541 819.638 356.813 819.638 355.992C819.638 354.797 819.115 353.995 818.07 353.584C817.024 353.136 815.568 352.707 813.702 352.296C812.507 352.035 811.294 351.717 810.062 351.344C808.83 350.971 807.691 350.504 806.646 349.944C805.638 349.347 804.816 348.6 804.182 347.704C803.547 346.771 803.23 345.632 803.23 344.288C803.23 341.824 804.2 339.752 806.142 338.072C808.12 336.392 810.883 335.552 814.43 335.552C817.715 335.552 820.328 336.317 822.27 337.848C824.248 339.379 825.424 341.488 825.798 344.176H819.022C818.611 342.123 817.062 341.096 814.374 341.096C813.03 341.096 811.984 341.357 811.238 341.88C810.528 342.403 810.174 343.056 810.174 343.84C810.174 344.661 810.715 345.315 811.798 345.8C812.88 346.285 814.318 346.733 816.11 347.144C818.051 347.592 819.824 348.096 821.43 348.656C823.072 349.179 824.379 349.981 825.35 351.064C826.32 352.109 826.806 353.621 826.806 355.6C826.843 357.317 826.395 358.867 825.462 360.248C824.528 361.629 823.184 362.712 821.43 363.496C819.675 364.28 817.603 364.672 815.214 364.672ZM859.995 364.672C857.195 364.672 854.713 364.075 852.547 362.88C850.382 361.685 848.683 360.005 847.451 357.84C846.219 355.675 845.603 353.173 845.603 350.336C845.603 347.461 846.201 344.904 847.395 342.664C848.627 340.424 850.307 338.688 852.435 337.456C854.601 336.187 857.139 335.552 860.051 335.552C862.777 335.552 865.185 336.149 867.275 337.344C869.366 338.539 870.99 340.181 872.147 342.272C873.342 344.325 873.939 346.621 873.939 349.16C873.939 349.571 873.921 350 873.883 350.448C873.883 350.896 873.865 351.363 873.827 351.848H852.715C852.865 354.013 853.611 355.712 854.955 356.944C856.337 358.176 857.998 358.792 859.939 358.792C861.395 358.792 862.609 358.475 863.579 357.84C864.587 357.168 865.334 356.309 865.819 355.264H873.099C872.577 357.019 871.699 358.624 870.467 360.08C869.273 361.499 867.779 362.619 865.987 363.44C864.233 364.261 862.235 364.672 859.995 364.672ZM860.051 341.376C858.297 341.376 856.747 341.88 855.403 342.888C854.059 343.859 853.201 345.352 852.827 347.368H866.659C866.547 345.539 865.875 344.083 864.643 343C863.411 341.917 861.881 341.376 860.051 341.376ZM886.378 364L876.186 336.224H883.69L890.746 357.224L897.802 336.224H905.306L895.058 364H886.378ZM921.956 364.672C919.156 364.672 916.674 364.075 914.508 362.88C912.343 361.685 910.644 360.005 909.412 357.84C908.18 355.675 907.564 353.173 907.564 350.336C907.564 347.461 908.162 344.904 909.356 342.664C910.588 340.424 912.268 338.688 914.396 337.456C916.562 336.187 919.1 335.552 922.012 335.552C924.738 335.552 927.146 336.149 929.236 337.344C931.327 338.539 932.951 340.181 934.108 342.272C935.303 344.325 935.9 346.621 935.9 349.16C935.9 349.571 935.882 350 935.844 350.448C935.844 350.896 935.826 351.363 935.788 351.848H914.676C914.826 354.013 915.572 355.712 916.916 356.944C918.298 358.176 919.959 358.792 921.9 358.792C923.356 358.792 924.57 358.475 925.54 357.84C926.548 357.168 927.295 356.309 927.78 355.264H935.06C934.538 357.019 933.66 358.624 932.428 360.08C931.234 361.499 929.74 362.619 927.948 363.44C926.194 364.261 924.196 364.672 921.956 364.672ZM922.012 341.376C920.258 341.376 918.708 341.88 917.364 342.888C916.02 343.859 915.162 345.352 914.788 347.368H928.62C928.508 345.539 927.836 344.083 926.604 343C925.372 341.917 923.842 341.376 922.012 341.376ZM941.929 364V336.224H948.257L948.817 340.928C949.676 339.285 950.908 337.979 952.513 337.008C954.156 336.037 956.078 335.552 958.281 335.552C961.716 335.552 964.385 336.635 966.289 338.8C968.193 340.965 969.145 344.139 969.145 348.32V364H961.977V348.992C961.977 346.603 961.492 344.773 960.521 343.504C959.55 342.235 958.038 341.6 955.985 341.6C953.969 341.6 952.308 342.309 951.001 343.728C949.732 345.147 949.097 347.125 949.097 349.664V364H941.929ZM988.375 364C985.463 364 983.13 363.291 981.375 361.872C979.621 360.453 978.743 357.933 978.743 354.312V342.216H973.983V336.224H978.743L979.583 328.776H985.911V336.224H993.415V342.216H985.911V354.368C985.911 355.712 986.191 356.645 986.751 357.168C987.349 357.653 988.357 357.896 989.775 357.896H993.247V364H988.375ZM1012.19 364.672C1009.5 364.672 1007.07 364.056 1004.91 362.824C1002.78 361.592 1001.08 359.893 999.811 357.728C998.579 355.525 997.963 352.987 997.963 350.112C997.963 347.237 998.597 344.717 999.867 342.552C1001.14 340.349 1002.83 338.632 1004.96 337.4C1007.13 336.168 1009.55 335.552 1012.24 335.552C1014.89 335.552 1017.28 336.168 1019.41 337.4C1021.58 338.632 1023.27 340.349 1024.51 342.552C1025.78 344.717 1026.41 347.237 1026.41 350.112C1026.41 352.987 1025.78 355.525 1024.51 357.728C1023.27 359.893 1021.58 361.592 1019.41 362.824C1017.25 364.056 1014.84 364.672 1012.19 364.672ZM1012.19 358.456C1014.05 358.456 1015.68 357.765 1017.06 356.384C1018.44 354.965 1019.13 352.875 1019.13 350.112C1019.13 347.349 1018.44 345.277 1017.06 343.896C1015.68 342.477 1014.07 341.768 1012.24 341.768C1010.34 341.768 1008.7 342.477 1007.31 343.896C1005.97 345.277 1005.3 347.349 1005.3 350.112C1005.3 352.875 1005.97 354.965 1007.31 356.384C1008.7 357.765 1010.32 358.456 1012.19 358.456ZM1044.3 364.672C1041.84 364.672 1039.67 364.28 1037.8 363.496C1035.94 362.675 1034.44 361.555 1033.32 360.136C1032.2 358.717 1031.53 357.075 1031.31 355.208H1038.53C1038.76 356.291 1039.35 357.224 1040.32 358.008C1041.33 358.755 1042.62 359.128 1044.19 359.128C1045.76 359.128 1046.89 358.811 1047.6 358.176C1048.35 357.541 1048.72 356.813 1048.72 355.992C1048.72 354.797 1048.2 353.995 1047.16 353.584C1046.11 353.136 1044.65 352.707 1042.79 352.296C1041.59 352.035 1040.38 351.717 1039.15 351.344C1037.92 350.971 1036.78 350.504 1035.73 349.944C1034.72 349.347 1033.9 348.6 1033.27 347.704C1032.63 346.771 1032.32 345.632 1032.32 344.288C1032.32 341.824 1033.29 339.752 1035.23 338.072C1037.21 336.392 1039.97 335.552 1043.52 335.552C1046.8 335.552 1049.41 336.317 1051.36 337.848C1053.33 339.379 1054.51 341.488 1054.88 344.176H1048.11C1047.7 342.123 1046.15 341.096 1043.46 341.096C1042.12 341.096 1041.07 341.357 1040.32 341.88C1039.61 342.403 1039.26 343.056 1039.26 343.84C1039.26 344.661 1039.8 345.315 1040.88 345.8C1041.97 346.285 1043.4 346.733 1045.2 347.144C1047.14 347.592 1048.91 348.096 1050.52 348.656C1052.16 349.179 1053.47 349.981 1054.44 351.064C1055.41 352.109 1055.89 353.621 1055.89 355.6C1055.93 357.317 1055.48 358.867 1054.55 360.248C1053.61 361.629 1052.27 362.712 1050.52 363.496C1048.76 364.28 1046.69 364.672 1044.3 364.672ZM351.14 434V406.224H357.468L358.084 409.976C358.98 408.632 360.156 407.568 361.612 406.784C363.105 405.963 364.823 405.552 366.764 405.552C371.057 405.552 374.1 407.213 375.892 410.536C376.9 409.005 378.244 407.792 379.924 406.896C381.641 406 383.508 405.552 385.524 405.552C389.145 405.552 391.927 406.635 393.868 408.8C395.809 410.965 396.78 414.139 396.78 418.32V434H389.612V418.992C389.612 416.603 389.145 414.773 388.212 413.504C387.316 412.235 385.916 411.6 384.012 411.6C382.071 411.6 380.503 412.309 379.308 413.728C378.151 415.147 377.572 417.125 377.572 419.664V434H370.404V418.992C370.404 416.603 369.937 414.773 369.004 413.504C368.071 412.235 366.633 411.6 364.692 411.6C362.788 411.6 361.239 412.309 360.044 413.728C358.887 415.147 358.308 417.125 358.308 419.664V434H351.14ZM414.001 434.672C410.529 434.672 407.841 433.589 405.937 431.424C404.071 429.259 403.137 426.085 403.137 421.904V406.224H410.249V421.232C410.249 423.621 410.735 425.451 411.705 426.72C412.676 427.989 414.207 428.624 416.297 428.624C418.276 428.624 419.9 427.915 421.169 426.496C422.476 425.077 423.129 423.099 423.129 420.56V406.224H430.297V434H423.969L423.409 429.296C422.551 430.939 421.3 432.245 419.657 433.216C418.052 434.187 416.167 434.672 414.001 434.672ZM437.656 434V393.68H444.824V434H437.656ZM464.524 434C461.612 434 459.278 433.291 457.524 431.872C455.769 430.453 454.892 427.933 454.892 424.312V412.216H450.132V406.224H454.892L455.732 398.776H462.06V406.224H469.564V412.216H462.06V424.368C462.06 425.712 462.34 426.645 462.9 427.168C463.497 427.653 464.505 427.896 465.924 427.896H469.396V434H464.524ZM479.582 401.912C478.275 401.912 477.193 401.52 476.334 400.736C475.513 399.952 475.102 398.963 475.102 397.768C475.102 396.573 475.513 395.603 476.334 394.856C477.193 394.072 478.275 393.68 479.582 393.68C480.889 393.68 481.953 394.072 482.774 394.856C483.633 395.603 484.062 396.573 484.062 397.768C484.062 398.963 483.633 399.952 482.774 400.736C481.953 401.52 480.889 401.912 479.582 401.912ZM475.998 434V406.224H483.166V434H475.998ZM503.024 434C500.112 434 497.778 433.291 496.024 431.872C494.269 430.453 493.392 427.933 493.392 424.312V412.216H488.632V406.224H493.392L494.232 398.776H500.56V406.224H508.064V412.216H500.56V424.368C500.56 425.712 500.84 426.645 501.4 427.168C501.997 427.653 503.005 427.896 504.424 427.896H507.896V434H503.024ZM524.634 434.672C521.162 434.672 518.474 433.589 516.57 431.424C514.703 429.259 513.77 426.085 513.77 421.904V406.224H520.882V421.232C520.882 423.621 521.367 425.451 522.338 426.72C523.309 427.989 524.839 428.624 526.93 428.624C528.909 428.624 530.533 427.915 531.802 426.496C533.109 425.077 533.762 423.099 533.762 420.56V406.224H540.93V434H534.602L534.042 429.296C533.183 430.939 531.933 432.245 530.29 433.216C528.685 434.187 526.799 434.672 524.634 434.672ZM561.056 434.672C558.443 434.672 556.11 434.037 554.056 432.768C552.003 431.499 550.379 429.763 549.184 427.56C547.99 425.357 547.392 422.856 547.392 420.056C547.392 417.256 547.99 414.773 549.184 412.608C550.379 410.405 552.003 408.688 554.056 407.456C556.11 406.187 558.443 405.552 561.056 405.552C563.147 405.552 564.976 405.944 566.544 406.728C568.112 407.512 569.382 408.613 570.352 410.032V393.68H577.52V434H571.136L570.352 430.024C569.456 431.256 568.262 432.339 566.768 433.272C565.312 434.205 563.408 434.672 561.056 434.672ZM562.568 428.4C564.883 428.4 566.768 427.635 568.224 426.104C569.718 424.536 570.464 422.539 570.464 420.112C570.464 417.685 569.718 415.707 568.224 414.176C566.768 412.608 564.883 411.824 562.568 411.824C560.291 411.824 558.406 412.589 556.912 414.12C555.419 415.651 554.672 417.629 554.672 420.056C554.672 422.483 555.419 424.48 556.912 426.048C558.406 427.616 560.291 428.4 562.568 428.4ZM588.684 401.912C587.377 401.912 586.294 401.52 585.436 400.736C584.614 399.952 584.204 398.963 584.204 397.768C584.204 396.573 584.614 395.603 585.436 394.856C586.294 394.072 587.377 393.68 588.684 393.68C589.99 393.68 591.054 394.072 591.876 394.856C592.734 395.603 593.164 396.573 593.164 397.768C593.164 398.963 592.734 399.952 591.876 400.736C591.054 401.52 589.99 401.912 588.684 401.912ZM585.1 434V406.224H592.268V434H585.1ZM599.749 434V406.224H606.077L606.637 410.928C607.496 409.285 608.728 407.979 610.333 407.008C611.976 406.037 613.899 405.552 616.101 405.552C619.536 405.552 622.205 406.635 624.109 408.8C626.013 410.965 626.965 414.139 626.965 418.32V434H619.797V418.992C619.797 416.603 619.312 414.773 618.341 413.504C617.371 412.235 615.859 411.6 613.805 411.6C611.789 411.6 610.128 412.309 608.821 413.728C607.552 415.147 606.917 417.125 606.917 419.664V434H599.749ZM643.396 434.672C641.006 434.672 639.046 434.299 637.516 433.552C635.985 432.768 634.846 431.741 634.1 430.472C633.353 429.203 632.98 427.803 632.98 426.272C632.98 423.696 633.988 421.605 636.004 420C638.02 418.395 641.044 417.592 645.076 417.592H652.132V416.92C652.132 415.016 651.59 413.616 650.508 412.72C649.425 411.824 648.081 411.376 646.476 411.376C645.02 411.376 643.75 411.731 642.668 412.44C641.585 413.112 640.913 414.12 640.652 415.464H633.652C633.838 413.448 634.51 411.693 635.668 410.2C636.862 408.707 638.393 407.568 640.26 406.784C642.126 405.963 644.217 405.552 646.532 405.552C650.489 405.552 653.606 406.541 655.884 408.52C658.161 410.499 659.3 413.299 659.3 416.92V434H653.196L652.524 429.52C651.702 431.013 650.545 432.245 649.052 433.216C647.596 434.187 645.71 434.672 643.396 434.672ZM645.02 429.072C647.073 429.072 648.66 428.4 649.78 427.056C650.937 425.712 651.665 424.051 651.964 422.072H645.86C643.956 422.072 642.593 422.427 641.772 423.136C640.95 423.808 640.54 424.648 640.54 425.656C640.54 426.739 640.95 427.579 641.772 428.176C642.593 428.773 643.676 429.072 645.02 429.072ZM666.14 434V406.224H672.524L673.196 411.432C674.204 409.64 675.567 408.221 677.284 407.176C679.039 406.093 681.092 405.552 683.444 405.552V413.112H681.428C679.86 413.112 678.46 413.355 677.228 413.84C675.996 414.325 675.025 415.165 674.316 416.36C673.644 417.555 673.308 419.216 673.308 421.344V434H666.14ZM692.207 401.912C690.9 401.912 689.818 401.52 688.959 400.736C688.138 399.952 687.727 398.963 687.727 397.768C687.727 396.573 688.138 395.603 688.959 394.856C689.818 394.072 690.9 393.68 692.207 393.68C693.514 393.68 694.578 394.072 695.399 394.856C696.258 395.603 696.687 396.573 696.687 397.768C696.687 398.963 696.258 399.952 695.399 400.736C694.578 401.52 693.514 401.912 692.207 401.912ZM688.623 434V406.224H695.791V434H688.623ZM716.601 434.672C713.913 434.672 711.486 434.056 709.321 432.824C707.193 431.592 705.494 429.893 704.225 427.728C702.993 425.525 702.377 422.987 702.377 420.112C702.377 417.237 703.011 414.717 704.281 412.552C705.55 410.349 707.249 408.632 709.377 407.4C711.542 406.168 713.969 405.552 716.657 405.552C719.307 405.552 721.697 406.168 723.825 407.4C725.99 408.632 727.689 410.349 728.921 412.552C730.19 414.717 730.825 417.237 730.825 420.112C730.825 422.987 730.19 425.525 728.921 427.728C727.689 429.893 725.99 431.592 723.825 432.824C721.659 434.056 719.251 434.672 716.601 434.672ZM716.601 428.456C718.467 428.456 720.091 427.765 721.473 426.384C722.854 424.965 723.545 422.875 723.545 420.112C723.545 417.349 722.854 415.277 721.473 413.896C720.091 412.477 718.486 411.768 716.657 411.768C714.753 411.768 713.11 412.477 711.729 413.896C710.385 415.277 709.713 417.349 709.713 420.112C709.713 422.875 710.385 424.965 711.729 426.384C713.11 427.765 714.734 428.456 716.601 428.456ZM748.714 434.672C746.25 434.672 744.084 434.28 742.218 433.496C740.351 432.675 738.858 431.555 737.738 430.136C736.618 428.717 735.946 427.075 735.722 425.208H742.946C743.17 426.291 743.767 427.224 744.738 428.008C745.746 428.755 747.034 429.128 748.602 429.128C750.17 429.128 751.308 428.811 752.018 428.176C752.764 427.541 753.138 426.813 753.138 425.992C753.138 424.797 752.615 423.995 751.57 423.584C750.524 423.136 749.068 422.707 747.202 422.296C746.007 422.035 744.794 421.717 743.562 421.344C742.33 420.971 741.191 420.504 740.146 419.944C739.138 419.347 738.316 418.6 737.682 417.704C737.047 416.771 736.73 415.632 736.73 414.288C736.73 411.824 737.7 409.752 739.642 408.072C741.62 406.392 744.383 405.552 747.93 405.552C751.215 405.552 753.828 406.317 755.77 407.848C757.748 409.379 758.924 411.488 759.298 414.176H752.522C752.111 412.123 750.562 411.096 747.874 411.096C746.53 411.096 745.484 411.357 744.738 411.88C744.028 412.403 743.674 413.056 743.674 413.84C743.674 414.661 744.215 415.315 745.298 415.8C746.38 416.285 747.818 416.733 749.61 417.144C751.551 417.592 753.324 418.096 754.93 418.656C756.572 419.179 757.879 419.981 758.85 421.064C759.82 422.109 760.306 423.621 760.306 425.6C760.343 427.317 759.895 428.867 758.962 430.248C758.028 431.629 756.684 432.712 754.93 433.496C753.175 434.28 751.103 434.672 748.714 434.672ZM774.832 403.424L774.16 391.72H780.32L779.704 403.424H774.832ZM765.816 403.424L765.2 391.72H771.36L770.688 403.424H765.816Z" fill="white"/>
</g>
<path d="M351.62 716.5L347.9 706.58H350.12L352.88 714.48L355.64 706.58H357.84L354.14 716.5H351.62ZM363.714 716.74C362.741 716.74 361.874 716.527 361.114 716.1C360.368 715.66 359.781 715.053 359.354 714.28C358.928 713.507 358.714 712.607 358.714 711.58C358.714 710.54 358.921 709.627 359.334 708.84C359.761 708.053 360.348 707.44 361.094 707C361.854 706.56 362.734 706.34 363.734 706.34C364.708 706.34 365.554 706.56 366.274 707C366.994 707.427 367.554 708 367.954 708.72C368.354 709.44 368.554 710.233 368.554 711.1C368.554 711.233 368.548 711.38 368.534 711.54C368.534 711.687 368.528 711.853 368.514 712.04H360.794C360.861 713 361.174 713.733 361.734 714.24C362.308 714.733 362.968 714.98 363.714 714.98C364.314 714.98 364.814 714.847 365.214 714.58C365.628 714.3 365.934 713.927 366.134 713.46H368.254C367.988 714.393 367.454 715.173 366.654 715.8C365.868 716.427 364.888 716.74 363.714 716.74ZM363.714 708.08C363.008 708.08 362.381 708.293 361.834 708.72C361.288 709.133 360.954 709.76 360.834 710.6H366.434C366.394 709.827 366.121 709.213 365.614 708.76C365.108 708.307 364.474 708.08 363.714 708.08ZM370.754 716.5V706.58H372.654L372.834 708.46C373.181 707.807 373.661 707.293 374.274 706.92C374.901 706.533 375.654 706.34 376.534 706.34V708.56H375.954C375.367 708.56 374.841 708.66 374.374 708.86C373.921 709.047 373.554 709.373 373.274 709.84C373.007 710.293 372.874 710.927 372.874 711.74V716.5H370.754ZM386.171 716.5L382.451 706.58H384.671L387.431 714.48L390.191 706.58H392.391L388.691 716.5H386.171ZM395.333 704.7C394.933 704.7 394.6 704.58 394.333 704.34C394.08 704.087 393.953 703.773 393.953 703.4C393.953 703.027 394.08 702.72 394.333 702.48C394.6 702.227 394.933 702.1 395.333 702.1C395.733 702.1 396.06 702.227 396.313 702.48C396.58 702.72 396.713 703.027 396.713 703.4C396.713 703.773 396.58 704.087 396.313 704.34C396.06 704.58 395.733 704.7 395.333 704.7ZM394.273 716.5V706.58H396.393V716.5H394.273ZM403.712 716.74C402.752 716.74 401.905 716.513 401.172 716.06C400.438 715.607 399.865 714.987 399.452 714.2C399.038 713.413 398.832 712.52 398.832 711.52C398.832 710.52 399.038 709.633 399.452 708.86C399.865 708.073 400.438 707.46 401.172 707.02C401.918 706.567 402.772 706.34 403.732 706.34C404.518 706.34 405.205 706.493 405.792 706.8C406.392 707.107 406.858 707.54 407.192 708.1V702.1H409.312V716.5H407.412L407.192 714.96C406.872 715.427 406.432 715.84 405.872 716.2C405.312 716.56 404.592 716.74 403.712 716.74ZM404.092 714.9C404.998 714.9 405.738 714.587 406.312 713.96C406.898 713.333 407.192 712.527 407.192 711.54C407.192 710.54 406.898 709.733 406.312 709.12C405.738 708.493 404.998 708.18 404.092 708.18C403.185 708.18 402.438 708.493 401.852 709.12C401.265 709.733 400.972 710.54 400.972 711.54C400.972 712.193 401.105 712.773 401.372 713.28C401.638 713.787 402.005 714.187 402.472 714.48C402.952 714.76 403.492 714.9 404.092 714.9ZM416.625 716.74C415.651 716.74 414.785 716.527 414.025 716.1C413.278 715.66 412.691 715.053 412.265 714.28C411.838 713.507 411.625 712.607 411.625 711.58C411.625 710.54 411.831 709.627 412.245 708.84C412.671 708.053 413.258 707.44 414.005 707C414.765 706.56 415.645 706.34 416.645 706.34C417.618 706.34 418.465 706.56 419.185 707C419.905 707.427 420.465 708 420.865 708.72C421.265 709.44 421.465 710.233 421.465 711.1C421.465 711.233 421.458 711.38 421.445 711.54C421.445 711.687 421.438 711.853 421.425 712.04H413.705C413.771 713 414.085 713.733 414.645 714.24C415.218 714.733 415.878 714.98 416.625 714.98C417.225 714.98 417.725 714.847 418.125 714.58C418.538 714.3 418.845 713.927 419.045 713.46H421.165C420.898 714.393 420.365 715.173 419.565 715.8C418.778 716.427 417.798 716.74 416.625 716.74ZM416.625 708.08C415.918 708.08 415.291 708.293 414.745 708.72C414.198 709.133 413.865 709.76 413.745 710.6H419.345C419.305 709.827 419.031 709.213 418.525 708.76C418.018 708.307 417.385 708.08 416.625 708.08ZM428.304 716.74C427.358 716.74 426.504 716.527 425.744 716.1C424.998 715.66 424.404 715.053 423.964 714.28C423.524 713.493 423.304 712.58 423.304 711.54C423.304 710.5 423.524 709.593 423.964 708.82C424.418 708.033 425.024 707.427 425.784 707C426.544 706.56 427.391 706.34 428.324 706.34C429.271 706.34 430.118 706.56 430.864 707C431.624 707.427 432.224 708.033 432.664 708.82C433.118 709.593 433.344 710.5 433.344 711.54C433.344 712.58 433.118 713.493 432.664 714.28C432.224 715.053 431.624 715.66 430.864 716.1C430.104 716.527 429.251 716.74 428.304 716.74ZM428.304 714.92C428.811 714.92 429.278 714.793 429.704 714.54C430.144 714.287 430.498 713.913 430.764 713.42C431.031 712.913 431.164 712.287 431.164 711.54C431.164 710.793 431.031 710.173 430.764 709.68C430.511 709.173 430.164 708.793 429.724 708.54C429.298 708.287 428.831 708.16 428.324 708.16C427.818 708.16 427.344 708.287 426.904 708.54C426.478 708.793 426.131 709.173 425.864 709.68C425.598 710.173 425.464 710.793 425.464 711.54C425.464 712.287 425.598 712.913 425.864 713.42C426.131 713.913 426.478 714.287 426.904 714.54C427.331 714.793 427.798 714.92 428.304 714.92Z" fill="white"/>
<circle cx="478.5" cy="710" r="59.5" stroke="white" stroke-opacity="0.2"/>
<circle cx="478.5" cy="710" r="35.5" stroke="white" stroke-opacity="0.3"/>
<rect x="458.5" y="690" width="40" height="40" rx="20" fill="white" fill-opacity="0.3"/>
<rect x="459" y="690.5" width="39" height="39" rx="19.5" stroke="white" stroke-opacity="0.6"/>
<path d="M473.237 703.093V716.907C473.237 717.96 474.397 718.6 475.29 718.027L486.143 711.12C486.97 710.6 486.97 709.4 486.143 708.867L475.29 701.973C474.397 701.4 473.237 702.04 473.237 703.093Z" fill="white"/>
<defs>
<filter id="filter0_ddddd_1_40" x="238.215" y="233.72" width="909.732" height="521.952" filterUnits="userSpaceOnUse" color-interpolation-filters="sRGB">
<feFlood flood-opacity="0" result="BackgroundImageFix"/>
<feColorMatrix in="SourceAlpha" type="matrix" values="0 0 0 0 0 0 0 0 0 0 0 0 0 0 0 0 0 0 127 0" result="hardAlpha"/>
<feOffset/>
<feColorMatrix type="matrix" values="0 0 0 0 0 0 0 0 0 0 0 0 0 0 0 0 0 0 0.1 0"/>
<feBlend mode="normal" in2="BackgroundImageFix" result="effect1_dropShadow_1_40"/>
<feColorMatrix in="SourceAlpha" type="matrix" values="0 0 0 0 0 0 0 0 0 0 0 0 0 0 0 0 0 0 127 0" result="hardAlpha"/>
<feOffset dy="14"/>
<feGaussianBlur stdDeviation="16"/>
<feColorMatrix type="matrix" values="0 0 0 0 0 0 0 0 0 0 0 0 0 0 0 0 0 0 0.1 0"/>
<feBlend mode="normal" in2="effect1_dropShadow_1_40" result="effect2_dropShadow_1_40"/>
<feColorMatrix in="SourceAlpha" type="matrix" values="0 0 0 0 0 0 0 0 0 0 0 0 0 0 0 0 0 0 127 0" result="hardAlpha"/>
<feOffset dy="57"/>
<feGaussianBlur stdDeviation="28.5"/>
<feColorMatrix type="matrix" values="0 0 0 0 0 0 0 0 0 0 0 0 0 0 0 0 0 0 0.09 0"/>
<feBlend mode="normal" in2="effect2_dropShadow_1_40" result="effect3_dropShadow_1_40"/>
<feColorMatrix in="SourceAlpha" type="matrix" values="0 0 0 0 0 0 0 0 0 0 0 0 0 0 0 0 0 0 127 0" result="hardAlpha"/>
<feOffset dy="129"/>
<feGaussianBlur stdDeviation="38.5"/>
<feColorMatrix type="matrix" values="0 0 0 0 0 0 0 0 0 0 0 0 0 0 0 0 0 0 0.05 0"/>
<feBlend mode="normal" in2="effect3_dropShadow_1_40" result="effect4_dropShadow_1_40"/>
<feColorMatrix in="SourceAlpha" type="matrix" values="0 0 0 0 0 0 0 0 0 0 0 0 0 0 0 0 0 0 127 0" result="hardAlpha"/>
<feOffset dy="229"/>
<feGaussianBlur stdDeviation="46"/>
<feColorMatrix type="matrix" values="0 0 0 0 0 0 0 0 0 0 0 0 0 0 0 0 0 0 0.01 0"/>
<feBlend mode="normal" in2="effect4_dropShadow_1_40" result="effect5_dropShadow_1_40"/>
<feBlend mode="normal" in="SourceGraphic" in2="effect5_dropShadow_1_40" result="shape"/>
</filter>
</defs>
</svg>
